<svg xmlns="http://www.w3.org/2000/svg" width="1200" height="675" viewBox="0 0 1200 675">
<defs><pattern id="g" width="18" height="18" patternUnits="userSpaceOnUse"><circle cx="1" cy="1" r="1" fill="#d7dae2"/></pattern><filter id="s"><feDropShadow dx="0" dy="3" stdDeviation="5" flood-opacity=".14"/></filter></defs><rect width="1200" height="675" fill="#f8f9fc"/><rect width="1200" height="54" fill="#20242e"/><circle cx="25" cy="27" r="11" fill="#ff6d5a"/><path d="M19 27h12M25 21v12" stroke="#fff" stroke-width="2"/><text x="48" y="33" font-family="Segoe UI,sans-serif" font-size="16" font-weight="600" fill="#fff">Procurement Negotiation Orchestrator</text><text x="1050" y="32" font-family="Segoe UI,sans-serif" font-size="12" fill="#aeb5c4">Saved</text><rect x="1100" y="14" width="76" height="28" rx="6" fill="#ff6d5a"/><text x="1138" y="33" text-anchor="middle" font-family="Segoe UI,sans-serif" font-size="12" font-weight="600" fill="#fff">Active</text><rect y="54" width="52" height="621" fill="#fff"/><path d="M52 54v621" stroke="#e1e4ea"/><g fill="none" stroke="#667085" stroke-width="1.7"><rect x="16" y="78" width="20" height="20" rx="4"/><path d="M20 88h12M26 82v12M18 127h16M18 134h16M18 141h11"/><circle cx="26" cy="181" r="9"/><path d="m33 188 6 6"/></g><rect x="52" y="54" width="1148" height="621" fill="url(#g)"/>
<g fill="none" stroke="#9aa1ad" stroke-width="2.3"><path d="M225 205H278M438 205H492M652 205H708M868 205H926M1006 237V298M926 330H868M708 330C676 330 682 450 650 450M490 450H432M352 418V360M432 328C464 328 460 273 492 273"/></g>
<g filter="url(#s)" font-family="Segoe UI,sans-serif">
<g><rect x="75" y="173" width="150" height="64" rx="8" fill="#fff" stroke="#cbd0da"/><circle cx="96" cy="195" r="13" fill="#34a853"/><text x="96" y="200" text-anchor="middle" font-size="10" font-weight="700" fill="#fff">S</text><text x="117" y="195" font-size="13" font-weight="600" fill="#252a35">Supplier Added</text><text x="117" y="215" font-size="10" fill="#7b8190">Google Sheets trigger</text></g>
<g><rect x="278" y="173" width="160" height="64" rx="8" fill="#fff" stroke="#cbd0da"/><circle cx="299" cy="195" r="13" fill="#ff8a65"/><text x="299" y="200" text-anchor="middle" font-size="11" font-weight="700" fill="#fff">{}</text><text x="320" y="195" font-size="13" font-weight="600" fill="#252a35">Validate Brief</text><text x="320" y="215" font-size="10" fill="#7b8190">Targets and constraints</text></g>
<g><rect x="492" y="173" width="160" height="64" rx="8" fill="#fff" stroke="#cbd0da"/><circle cx="513" cy="195" r="13" fill="#0ea5e9"/><text x="513" y="200" text-anchor="middle" font-size="9" font-weight="700" fill="#fff">API</text><text x="534" y="195" font-size="13" font-weight="600" fill="#252a35">Build Context</text><text x="534" y="215" font-size="10" fill="#7b8190">History and benchmarks</text></g>
<g><rect x="708" y="173" width="160" height="64" rx="8" fill="#fff" stroke="#cbd0da"/><circle cx="729" cy="195" r="13" fill="#10a37f"/><text x="729" y="200" text-anchor="middle" font-size="9" font-weight="700" fill="#fff">GPT</text><text x="750" y="195" font-size="13" font-weight="600" fill="#252a35">Draft Strategies</text><text x="750" y="215" font-size="10" fill="#7b8190">Three negotiation angles</text></g>
<g><rect x="926" y="173" width="160" height="64" rx="8" fill="#fff" stroke="#cbd0da"/><circle cx="947" cy="195" r="13" fill="#f59e0b"/><text x="947" y="200" text-anchor="middle" font-size="11" font-weight="700" fill="#fff">IF</text><text x="968" y="195" font-size="13" font-weight="600" fill="#252a35">Approval Gate</text><text x="968" y="215" font-size="10" fill="#7b8190">Procurement review</text></g>
<g><rect x="926" y="298" width="160" height="64" rx="8" fill="#fff" stroke="#cbd0da"/><circle cx="947" cy="320" r="13" fill="#ea4335"/><text x="947" y="325" text-anchor="middle" font-size="11" font-weight="700" fill="#fff">M</text><text x="968" y="320" font-size="13" font-weight="600" fill="#252a35">Send Proposal</text><text x="968" y="340" font-size="10" fill="#7b8190">Gmail with audit copy</text></g>
<g><rect x="708" y="298" width="160" height="64" rx="8" fill="#fff" stroke="#cbd0da"/><circle cx="729" cy="320" r="13" fill="#6366f1"/><text x="729" y="325" text-anchor="middle" font-size="11" font-weight="700" fill="#fff">W</text><text x="750" y="320" font-size="13" font-weight="600" fill="#252a35">Wait for Reply</text><text x="750" y="340" font-size="10" fill="#7b8190">Timed follow-up window</text></g>
<g><rect x="490" y="418" width="160" height="64" rx="8" fill="#fff" stroke="#cbd0da"/><circle cx="511" cy="440" r="13" fill="#111827"/><text x="511" y="445" text-anchor="middle" font-size="10" font-weight="700" fill="#fff">AI</text><text x="532" y="440" font-size="13" font-weight="600" fill="#252a35">Classify Response</text><text x="532" y="460" font-size="10" fill="#7b8190">Accept, counter or decline</text></g>
<g><rect x="272" y="418" width="160" height="64" rx="8" fill="#fff" stroke="#cbd0da"/><circle cx="293" cy="440" r="13" fill="#000"/><text x="293" y="445" text-anchor="middle" font-size="11" font-weight="700" fill="#fff">N</text><text x="314" y="440" font-size="13" font-weight="600" fill="#252a35">Log Outcome</text><text x="314" y="460" font-size="10" fill="#7b8190">Notion negotiation record</text></g>
<g><rect x="272" y="296" width="160" height="64" rx="8" fill="#fff" stroke="#cbd0da"/><circle cx="293" cy="318" r="13" fill="#4a154b"/><text x="293" y="323" text-anchor="middle" font-size="11" font-weight="700" fill="#fff">S</text><text x="314" y="318" font-size="13" font-weight="600" fill="#252a35">Notify Procurement</text><text x="314" y="338" font-size="10" fill="#7b8190">Slack result summary</text></g></g>
<g font-family="Segoe UI,sans-serif"><rect x="1000" y="610" width="168" height="40" rx="8" fill="#fff" stroke="#d5d9e1"/><text x="1020" y="635" font-size="18" fill="#555">-</text><text x="1084" y="634" text-anchor="middle" font-size="11" fill="#687083">100%</text><text x="1147" y="635" font-size="18" fill="#555">+</text></g></svg>
