<?xml version="1.0" encoding="UTF-8"?>
<svg width="256px" height="256px" viewBox="0 0 256 256" version="1.1" xmlns="http://www.w3.org/2000/svg">
    <g stroke="none" stroke-width="1" fill="none" fill-rule="evenodd">
        <g transform="translate(0.000000, 0.000000)">
            <path d="M128,0 C198.692448,0 256,57.307552 256,128 C256,198.692448 198.692448,256 128,256 C57.307552,256 0,198.692448 0,128 C0,57.307552 57.307552,0 128,0 Z" fill="#336791"></path>
            <path d="M128,44 C69.3333333,44 20,69.3333333 20,128 C20,186.666667 69.3333333,236 128,236 C186.666667,236 236,186.666667 236,128 C236,69.3333333 186.666667,44 128,44 Z" fill="#FFFFFF"></path>
            <path d="M128,68 L128,188" stroke="#336791" stroke-width="20" stroke-linecap="round"></path>
            <path d="M68,128 L188,128" stroke="#336791" stroke-width="20" stroke-linecap="round"></path>
            <path d="M128,68 L188,128 L128,188 L68,128 Z" stroke="#336791" stroke-width="20" fill="none"></path>
        </g>
    </g>
</svg> 